<svg width="128" height="32" viewBox="0 0 128 32" fill="none" xmlns="http://www.w3.org/2000/svg">
<path d="M0.657593 32.0001H11.5069C16.6515 32.0001 20.822 27.8296 20.822 22.6851H9.97266C4.82809 22.6851 0.657593 26.8556 0.657593 32.0001Z" fill="#F22BB2"/>
<path d="M1.14282 9.31507V23.0137C6.28739 23.0137 10.4579 18.8432 10.4579 13.6986V0C5.31332 0 1.14282 4.1705 1.14282 9.31507Z" fill="#8C30F5"/>
<path d="M31.3425 0H20.4932C15.3486 0 11.1781 4.1705 11.1781 9.31507H22.0274C27.172 9.31507 31.3425 5.14457 31.3425 0Z" fill="#FE9A22"/>
<path d="M31.3424 22.1371V8.43848C26.1978 8.43848 22.0273 12.609 22.0273 17.7535V31.4522C27.1719 31.4522 31.3424 27.2817 31.3424 22.1371Z" fill="#2EC5CE"/>
<path d="M46.1714 20.4802V8.00023H42.5143V24.0002H51.8857V20.4802H46.1714Z" fill="black"/>
<path d="M61.5677 12.5717V13.6459C60.8134 12.7774 59.6934 12.2517 58.162 12.2517C55.1677 12.2517 52.6991 14.8802 52.6991 18.2859C52.6991 21.6917 55.1677 24.3202 58.162 24.3202C59.6934 24.3202 60.8134 23.7945 61.5677 22.9259V24.0002H64.9962V12.5717H61.5677ZM58.8477 21.0745C57.2705 21.0745 56.1277 20.0002 56.1277 18.2859C56.1277 16.5717 57.2705 15.4974 58.8477 15.4974C60.4248 15.4974 61.5677 16.5717 61.5677 18.2859C61.5677 20.0002 60.4248 21.0745 58.8477 21.0745Z" fill="black"/>
<path d="M74.2087 12.2517C72.7002 12.2517 71.5573 12.8002 70.9402 13.6459V12.5717H67.5116V24.0002H70.9402V17.7602C70.9402 16.1374 71.8087 15.4059 73.0659 15.4059C74.163 15.4059 75.0545 16.0688 75.0545 17.4859V24.0002H78.483V16.9831C78.483 13.8974 76.5173 12.2517 74.2087 12.2517Z" fill="black"/>
<path d="M89.1346 8.00023V13.6459C88.3803 12.7774 87.2603 12.2517 85.7289 12.2517C82.7346 12.2517 80.2661 14.8802 80.2661 18.2859C80.2661 21.6917 82.7346 24.3202 85.7289 24.3202C87.2603 24.3202 88.3803 23.7945 89.1346 22.9259V24.0002H92.5632V8.00023H89.1346ZM86.4146 21.0745C84.8375 21.0745 83.6946 20.0002 83.6946 18.2859C83.6946 16.5717 84.8375 15.4974 86.4146 15.4974C87.9918 15.4974 89.1346 16.5717 89.1346 18.2859C89.1346 20.0002 87.9918 21.0745 86.4146 21.0745Z" fill="black"/>
<path d="M96.7928 11.5659C97.9128 11.5659 98.85 10.6288 98.85 9.5088C98.85 8.3888 97.9128 7.45166 96.7928 7.45166C95.6728 7.45166 94.7357 8.3888 94.7357 9.5088C94.7357 10.6288 95.6728 11.5659 96.7928 11.5659ZM95.0786 24.0002H98.5071V12.5717H95.0786V24.0002Z" fill="black"/>
<path d="M107.302 10.9717V7.68023C103.507 7.45166 101.747 9.37166 101.747 12.5717H100.216V15.8631H101.747V24.0002H105.176V15.8631H107.302V12.5717H105.176C105.176 11.2459 106.022 10.8574 107.302 10.9717Z" fill="black"/>
<path d="M116.207 12.5717L114.059 19.5659L111.521 12.5717H107.75L112.299 23.4745C111.796 24.8688 111.041 25.3717 109.441 25.3717V28.5717C112.641 28.7317 114.676 27.2917 115.956 23.6574L119.864 12.5717H116.207Z" fill="black"/>
<path d="M123.168 4.7998H120.078V5.5918H121.206V8.9998H122.034V5.5918H123.168V4.7998Z" fill="black"/>
<path d="M127.74 4.7998H126.888L125.688 6.7858L124.482 4.7998H123.63V8.9998H124.458V6.28181L125.64 8.2258H125.736L126.918 6.2758V8.9998H127.74V4.7998Z" fill="black"/>
</svg>
