<svg width="18" height="18" viewBox="0 0 18 18" fill="none" xmlns="http://www.w3.org/2000/svg">
<path fill-rule="evenodd" clip-rule="evenodd" d="M17.5333 8.9883C17.5333 9.56539 17.4746 10.1417 17.3592 10.7034C17.2467 11.2518 17.08 11.7902 16.8617 12.3049C16.6483 12.8105 16.3837 13.2977 16.0745 13.7521C15.77 14.2036 15.4191 14.6271 15.0337 15.0133C14.6474 15.3977 14.2224 15.7476 13.7711 16.0535C13.3152 16.3605 12.8273 16.6247 12.3214 16.8391C11.806 17.0562 11.2664 17.2227 10.7184 17.335C10.1559 17.4507 9.57754 17.5098 8.99962 17.5098C8.42126 17.5098 7.8429 17.4507 7.2812 17.335C6.73244 17.2227 6.19282 17.0562 5.67779 16.8391C5.17194 16.6247 4.68356 16.3605 4.22771 16.0535C3.77644 15.7476 3.35142 15.3977 2.96598 15.0133C2.58014 14.6271 2.22927 14.2036 1.92426 13.7521C1.61674 13.2977 1.35171 12.8105 1.13755 12.3049C0.919175 11.7902 0.752106 11.2518 0.63918 10.7034C0.525018 10.1417 0.466667 9.56539 0.466667 8.9883C0.466667 8.41077 0.524984 7.83325 0.639213 7.27273C0.75214 6.72432 0.919208 6.18509 1.13758 5.67123C1.35174 5.16528 1.61677 4.67764 1.92429 4.22325C2.2293 3.77139 2.58017 3.34862 2.96601 2.96207C3.35145 2.57759 3.77647 2.22852 4.22775 1.92312C4.68359 1.61478 5.17197 1.35059 5.67782 1.13587C6.19285 0.918218 6.73244 0.751391 7.28124 0.639894C7.84293 0.525063 8.42129 0.466797 8.99965 0.466797C9.57758 0.466797 10.1559 0.525063 10.7185 0.639894C11.2664 0.751424 11.806 0.918251 12.3215 1.13587C12.8273 1.35056 13.3153 1.61478 13.7711 1.92312C14.2224 2.22852 14.6474 2.57759 15.0337 2.96207C15.4191 3.34862 15.77 3.77139 16.0746 4.22325C16.3837 4.67764 16.6483 5.16531 16.8617 5.67123C17.08 6.18509 17.2467 6.72432 17.3592 7.27273C17.4746 7.83325 17.5333 8.41077 17.5333 8.9883ZM5.89025 2.40618C3.85804 3.36445 2.3413 5.23434 1.86835 7.48787C2.06047 7.48954 5.0973 7.52783 8.59621 6.59951C7.33492 4.36178 5.98735 2.53562 5.89025 2.40618ZM9.19999 7.72008C5.44773 8.84181 1.84711 8.7611 1.71795 8.75613C1.71584 8.83434 1.7121 8.91005 1.7121 8.98829C1.7121 10.8577 2.41839 12.562 3.57928 13.8507C3.57678 13.8469 5.57107 10.3139 9.50376 9.04406C9.59875 9.01244 9.69545 8.98412 9.79127 8.95667C9.60837 8.54311 9.40874 8.12867 9.19999 7.72008ZM13.8123 3.52672C12.5293 2.39701 10.8447 1.71176 8.99959 1.71176C8.40747 1.71176 7.83285 1.78333 7.28241 1.91564C7.39157 2.06212 8.76041 3.87541 10.0067 6.16053C12.7565 5.13115 13.7944 3.55333 13.8123 3.52672ZM10.288 10.1625C10.2718 10.1679 10.2556 10.1725 10.2397 10.1783C5.93996 11.6751 4.53582 14.6915 4.52063 14.7245C5.7578 15.6852 7.30955 16.2648 8.99964 16.2648C10.0088 16.2648 10.9701 16.0596 11.8447 15.6881C11.7368 15.0523 11.3135 12.8238 10.288 10.1625ZM13.0719 15.0232C14.7082 13.9206 15.8703 12.1697 16.1945 10.1416C16.0445 10.0934 14.0057 9.44886 11.6534 9.82544C12.6093 12.4485 12.9977 14.5847 13.0719 15.0232ZM10.5676 7.24487C10.7368 7.5919 10.9006 7.9451 11.0518 8.30007C11.1056 8.42741 11.1581 8.55225 11.2093 8.67705C13.7128 8.36247 16.1792 8.89174 16.2846 8.91335C16.2679 7.18828 15.65 5.60505 14.6274 4.36555C14.6137 4.38506 13.4449 6.07148 10.5676 7.24487Z" fill="#374151"/>
</svg>
